<svg width="598" height="598" viewBox="0 0 598 598" fill="none" xmlns="http://www.w3.org/2000/svg">
<path d="M357.471 53.4884C398.002 54.1528 455.477 70.764 471.091 111.96C487.876 156.242 485.892 165.713 513.283 213.952C540.637 262.123 526.02 329.896 496.784 358.688C455.373 399.471 419.372 389.349 345.843 389.033C294.349 388.812 236.809 426.153 207.639 435.876C188.038 442.41 146.178 449.497 119.6 422.255C90.251 392.172 96.7878 336.542 91.6935 315.28C86.3573 293.007 51.0202 214.253 89.0357 152.823C134.882 78.7373 237.194 51.5163 357.471 53.4884Z" fill="url(#paint0_linear_397:299)"/>
<path d="M418.231 501.262C432.861 498.607 487.039 487.76 489.474 509.741C491.522 528.234 447.594 526.689 426.572 525.687C399.828 524.413 345.255 530.237 343.2 519.158C341.967 512.509 358.246 508.965 375.046 507.973C388.858 507.157 396.804 505.151 418.231 501.262Z" fill="url(#paint1_linear_397:299)"/>
<path d="M172.847 517.966C159.466 516.455 102.871 507.759 105.645 529.674C107.86 547.171 149.611 540.327 168.546 541.856C195.29 544.015 240.949 541.173 241.845 529.975C242.382 523.255 227.441 520.988 212.25 521.302C199.763 521.56 192.446 520.178 172.847 517.966Z" fill="url(#paint2_linear_397:299)"/>
<path d="M257.666 331.753C257.666 331.061 258.227 330.499 258.92 330.499H273.024C273.716 330.499 274.278 331.061 274.278 331.753V345.857C274.278 346.55 273.716 347.111 273.024 347.111H258.92C258.227 347.111 257.666 346.55 257.666 345.857V331.753Z" fill="url(#paint3_linear_397:299)"/>
<path d="M265.391 343.664C265.185 343.664 264.99 343.568 264.864 343.403L260.794 338.087C260.571 337.796 260.627 337.38 260.918 337.156C261.208 336.934 261.626 336.988 261.849 337.281L265.336 341.834L270.06 334.26C270.254 333.948 270.664 333.855 270.975 334.048C271.287 334.242 271.381 334.652 271.187 334.964L265.955 343.352C265.839 343.537 265.641 343.654 265.423 343.665C265.413 343.664 265.402 343.664 265.391 343.664Z" fill="#FDE1A7"/>
<path d="M257.665 356.244C257.665 355.552 258.226 354.99 258.919 354.99H273.023C273.715 354.99 274.277 355.552 274.277 356.244V370.348C274.277 371.04 273.715 371.602 273.023 371.602H258.919C258.226 371.602 257.665 371.04 257.665 370.348V356.244Z" fill="url(#paint4_linear_397:299)"/>
<path d="M265.392 368.155C265.186 368.155 264.991 368.058 264.865 367.894L260.795 362.578C260.572 362.287 260.628 361.87 260.919 361.647C261.209 361.425 261.627 361.478 261.85 361.771L265.337 366.325L270.061 358.751C270.255 358.44 270.665 358.345 270.976 358.539C271.288 358.733 271.382 359.143 271.188 359.454L265.956 367.843C265.84 368.028 265.642 368.145 265.424 368.155C265.414 368.155 265.403 368.155 265.392 368.155Z" fill="#FDE1A7"/>
<path d="M257.665 380.735C257.665 380.043 258.226 379.481 258.919 379.481H273.023C273.715 379.481 274.277 380.043 274.277 380.735V394.839C274.277 395.532 273.715 396.093 273.023 396.093H258.919C258.226 396.093 257.665 395.532 257.665 394.839V380.735Z" fill="url(#paint5_linear_397:299)"/>
<path d="M265.392 392.645C265.186 392.645 264.991 392.549 264.865 392.384L260.795 387.069C260.572 386.778 260.628 386.361 260.919 386.138C261.209 385.915 261.627 385.969 261.85 386.262L265.337 390.816L270.061 383.242C270.255 382.93 270.665 382.836 270.976 383.03C271.288 383.224 271.382 383.634 271.188 383.945L265.956 392.334C265.84 392.519 265.642 392.635 265.424 392.646C265.414 392.645 265.403 392.645 265.392 392.645Z" fill="#FDE1A7"/>
<path d="M324.954 238.453H231.102V322.09H324.954V238.453Z" fill="url(#paint6_linear_397:299)"/>
<path d="M275.813 245.568H240.652V248.89H275.813V245.568Z" fill="url(#paint7_linear_397:299)"/>
<path d="M315.403 249.832C315.403 249.098 314.808 248.503 314.074 248.503H306.1C305.367 248.503 304.771 249.098 304.771 249.832V312.954H315.403V249.832Z" fill="url(#paint8_linear_397:299)"/>
<path d="M315.403 273.863V249.832C315.403 249.098 314.808 248.503 314.074 248.503H306.1C305.367 248.503 304.771 249.098 304.771 249.832V273.863H315.403Z" fill="url(#paint9_linear_397:299)"/>
<path d="M283.345 263.951C283.345 263.218 282.75 262.622 282.016 262.622H274.043C273.309 262.622 272.714 263.218 272.714 263.951V312.954H283.345V263.951Z" fill="url(#paint10_linear_397:299)"/>
<path d="M283.345 292.245V263.951C283.345 263.218 282.75 262.622 282.016 262.622H274.043C273.309 262.622 272.714 263.218 272.714 263.951V292.245H283.345Z" fill="url(#paint11_linear_397:299)"/>
<path d="M299.375 273.253C299.375 272.52 298.78 271.925 298.046 271.925H290.073C289.339 271.925 288.744 272.52 288.744 273.253V312.954H299.375V273.253Z" fill="url(#paint12_linear_397:299)"/>
<path d="M299.375 292.245V273.253C299.375 272.52 298.78 271.925 298.046 271.925H290.073C289.339 271.925 288.744 272.52 288.744 273.253V292.245H299.375Z" fill="url(#paint13_linear_397:299)"/>
<path d="M267.315 254.981C267.315 254.248 266.719 253.652 265.986 253.652H258.012C257.279 253.652 256.684 254.248 256.684 254.981V312.954H267.315V254.981Z" fill="url(#paint14_linear_397:299)"/>
<path d="M267.315 275.524V254.981C267.315 254.248 266.719 253.652 265.986 253.652H258.012C257.279 253.652 256.684 254.248 256.684 254.981V275.524H267.315Z" fill="url(#paint15_linear_397:299)"/>
<path d="M251.284 284.217C251.284 283.483 250.689 282.888 249.956 282.888H241.982C241.249 282.888 240.653 283.483 240.653 284.217V312.954H251.284V284.217Z" fill="url(#paint16_linear_397:299)"/>
<path d="M251.284 300.994V284.217C251.284 283.483 250.689 282.888 249.956 282.888H241.982C241.249 282.888 240.653 283.483 240.653 284.217V300.994H251.284Z" fill="url(#paint17_linear_397:299)"/>
<path d="M315.404 313.618H240.82C240.453 313.618 240.155 313.321 240.155 312.954C240.155 312.587 240.453 312.29 240.82 312.29H315.404C315.771 312.29 316.068 312.587 316.068 312.954C316.068 313.321 315.77 313.618 315.404 313.618Z" fill="#1AA9E8"/>
<path d="M199.498 112.956H105.313V168.936H199.498V112.956Z" fill="url(#paint18_linear_397:299)"/>
<path d="M118.146 160.63H145.625V125.692L118.146 160.63Z" fill="#00E2EC"/>
<path d="M171.095 152.158V160.63H188.039V132.004L171.095 152.158Z" fill="#00E2EC"/>
<path d="M145.625 125.692V160.63H171.095V152.158L145.625 125.692Z" fill="#0090B2"/>
<path d="M196.233 142.939L188.038 132.004V160.63H196.233V142.939Z" fill="#0090B2"/>
<path d="M192.69 120.265H156.644V123.587H192.69V120.265Z" fill="url(#paint19_linear_397:299)"/>
<path d="M135.803 151.722C135.581 151.722 135.364 151.611 135.238 151.408L119.517 126.128C119.323 125.817 119.419 125.407 119.731 125.213C120.042 125.019 120.452 125.115 120.646 125.426L136.366 150.707C136.56 151.018 136.465 151.428 136.153 151.622C136.044 151.689 135.923 151.722 135.803 151.722Z" fill="#1AA9E8"/>
<path d="M120.082 129.349C122.055 129.349 123.654 127.75 123.654 125.777C123.654 123.805 122.055 122.206 120.082 122.206C118.11 122.206 116.511 123.805 116.511 125.777C116.511 127.75 118.11 129.349 120.082 129.349Z" fill="#F95FC3"/>
<path d="M135.803 153.334C137.061 153.334 138.08 152.315 138.08 151.057C138.08 149.8 137.061 148.78 135.803 148.78C134.545 148.78 133.526 149.8 133.526 151.057C133.526 152.315 134.545 153.334 135.803 153.334Z" fill="white"/>
<path d="M211.314 181.3C208.288 173.746 207.327 165.264 209.016 156.685C211.499 144.077 219.183 133.818 229.399 127.692L219.84 108.906C204.072 117.888 192.153 133.417 188.372 152.619C185.767 165.845 187.397 178.921 192.317 190.45L211.314 181.3Z" fill="white"/>
<path d="M234.725 124.973C242.505 121.651 251.33 120.548 260.257 122.305C273.207 124.855 283.671 132.898 289.731 143.531L308.731 134.381C299.868 117.993 284.028 105.542 264.322 101.661C250.587 98.9558 237.012 100.816 225.166 106.188L234.725 124.973Z" fill="white"/>
<path d="M311.329 139.767L292.332 148.917C295.364 156.475 296.326 164.962 294.636 173.546C289.98 197.189 267.038 212.582 243.395 207.925C230.439 205.374 219.972 197.325 213.913 186.686L194.914 195.837C203.775 212.23 219.618 224.687 239.33 228.57C274.374 235.471 308.379 212.656 315.28 177.612C317.886 164.38 316.254 151.299 311.329 139.767Z" fill="white"/>
<path d="M215.204 188.823C210.775 181.996 208.193 173.859 208.193 165.115C208.193 152.266 213.75 140.715 222.59 132.73L209.58 116.146C195.845 128.005 187.151 145.545 187.151 165.115C187.151 178.596 191.278 191.11 198.333 201.471L215.204 188.823Z" fill="url(#paint20_linear_397:299)"/>
<path d="M227.291 129.034C234.282 124.27 242.727 121.483 251.825 121.483C265.024 121.483 276.845 127.352 284.846 136.614L301.719 123.964C289.857 109.598 271.91 100.442 251.825 100.442C237.827 100.442 224.867 104.891 214.283 112.45L227.291 129.034Z" fill="url(#paint21_linear_397:299)"/>
<path d="M305.309 128.748L288.439 141.395C292.872 148.225 295.458 156.366 295.458 165.115C295.458 189.213 275.923 208.747 251.826 208.747C238.621 208.747 226.796 202.874 218.795 193.605L201.922 206.254C213.784 220.627 231.735 229.788 251.825 229.788C287.543 229.788 316.497 200.832 316.497 165.115C316.499 151.63 312.369 139.11 305.309 128.748Z" fill="url(#paint22_linear_397:299)"/>
<path d="M226.53 174.625C230.379 184.855 240.25 192.136 251.825 192.136C260.132 192.136 267.56 188.385 272.517 182.486L251.825 165.115L226.53 174.625Z" fill="url(#paint23_linear_397:299)"/>
<path d="M261.409 139.85L251.825 165.115L272.517 182.486C276.465 177.789 278.846 171.731 278.846 165.115C278.846 153.568 271.6 143.717 261.409 139.85Z" fill="url(#paint24_linear_397:299)"/>
<path d="M261.409 139.85C258.43 138.719 255.201 138.094 251.826 138.094C236.903 138.094 224.805 150.192 224.805 165.115C224.805 168.463 225.417 171.666 226.53 174.625L251.825 165.115L261.409 139.85Z" fill="url(#paint25_linear_397:299)"/>
<path d="M475.208 84.302H330.304V175.082H475.208V84.302Z" fill="url(#paint26_linear_397:299)"/>
<path d="M344.976 102.748C346.948 102.748 348.547 101.149 348.547 99.177C348.547 97.2046 346.948 95.6056 344.976 95.6056C343.003 95.6056 341.404 97.2046 341.404 99.177C341.404 101.149 343.003 102.748 344.976 102.748Z" fill="#FDE1A7"/>
<path d="M364.137 102.748C366.109 102.748 367.708 101.149 367.708 99.177C367.708 97.2046 366.109 95.6056 364.137 95.6056C362.164 95.6056 360.565 97.2046 360.565 99.177C360.565 101.149 362.164 102.748 364.137 102.748Z" fill="#00E2EC"/>
<path d="M383.301 102.748C385.273 102.748 386.872 101.149 386.872 99.177C386.872 97.2046 385.273 95.6056 383.301 95.6056C381.328 95.6056 379.729 97.2046 379.729 99.177C379.729 101.149 381.328 102.748 383.301 102.748Z" fill="#C7A0F6"/>
<path d="M386.872 108.748H341.402V112.07H386.872V108.748Z" fill="url(#paint27_linear_397:299)"/>
<path d="M464.104 106.712C461.903 102.379 458.602 98.4069 453.916 98.5597C443.728 98.8919 437.083 125.47 429.996 125.802C422.909 126.134 425.344 99.0029 416.264 99.2241C404.858 99.5025 404.414 152.047 390.129 153.265C375.843 154.483 372.631 125.027 366.209 125.47C359.786 125.913 357.025 148.566 355.91 153.487C354.795 158.408 349.155 159.356 349.155 159.356H464.104V106.712Z" fill="url(#paint28_linear_397:299)"/>
<path d="M464.106 106.422C448.38 107.087 445.058 149.39 428.89 148.393C415.478 147.566 417.705 124.805 405.967 124.141C394.228 123.476 388.691 151.051 374.516 151.937C367.624 152.367 362.114 148.061 355.801 148.614C349.489 149.168 342.955 157.584 341.404 159.356H464.106V106.422Z" fill="url(#paint29_linear_397:299)"/>
<path d="M310.07 72.7021H251.378V91.3066H310.07V72.7021Z" fill="url(#paint30_linear_397:299)"/>
<path d="M304.688 85.2436C302.365 85.2436 301.198 83.7393 300.168 82.4117C299.203 81.1679 298.37 80.0941 296.699 80.0941C295.027 80.0941 294.194 81.1679 293.229 82.4117C292.199 83.7393 291.033 85.2436 288.71 85.2436C286.387 85.2436 285.22 83.7393 284.191 82.4117C283.226 81.1679 282.393 80.0941 280.722 80.0941C279.051 80.0941 278.217 81.1679 277.253 82.4117C276.223 83.7393 275.056 85.2436 272.734 85.2436C270.412 85.2436 269.245 83.7393 268.216 82.4117C267.252 81.1679 266.419 80.0941 264.748 80.0941C263.077 80.0941 262.244 81.1679 261.28 82.4117C260.251 83.7393 259.084 85.2436 256.761 85.2436C256.394 85.2436 256.097 84.9459 256.097 84.5791C256.097 84.2123 256.394 83.9147 256.761 83.9147C258.433 83.9147 259.265 82.8409 260.23 81.5971C261.259 80.2695 262.426 78.7652 264.748 78.7652C267.071 78.7652 268.237 80.2702 269.267 81.5971C270.231 82.8409 271.063 83.9147 272.734 83.9147C274.405 83.9147 275.238 82.8409 276.203 81.5971C277.232 80.2695 278.399 78.7652 280.722 78.7652C283.044 78.7652 284.211 80.2695 285.241 81.5971C286.205 82.8409 287.039 83.9147 288.71 83.9147C290.381 83.9147 291.215 82.8409 292.179 81.5971C293.209 80.2695 294.376 78.7652 296.699 78.7652C299.022 78.7652 300.188 80.2695 301.218 81.5971C302.183 82.8409 303.016 83.9147 304.688 83.9147C305.055 83.9147 305.352 84.2123 305.352 84.5791C305.352 84.9459 305.054 85.2436 304.688 85.2436Z" fill="#05C5DA"/>
<path d="M259.627 111.837C259.453 111.837 259.28 111.768 259.149 111.633C258.895 111.369 258.902 110.948 259.166 110.694L279.768 90.8282C280.032 90.5737 280.452 90.5804 280.708 90.8448C280.962 91.1093 280.955 91.5299 280.691 91.7843L260.089 111.65C259.96 111.775 259.794 111.837 259.627 111.837Z" fill="#1AA9E8"/>
<path d="M259.627 113.802C261.079 113.802 262.257 112.625 262.257 111.172C262.257 109.72 261.079 108.542 259.627 108.542C258.175 108.542 256.997 109.72 256.997 111.172C256.997 112.625 258.175 113.802 259.627 113.802Z" fill="#FDE1A7"/>
<path d="M366.433 281.052C366.956 281.944 368.102 282.244 368.995 281.722L399.501 267.949C400.394 267.428 400.693 266.281 400.172 265.388L386.312 242.318C385.79 241.426 384.644 241.126 383.751 241.648L349.814 251.054C348.921 251.575 348.62 252.721 349.142 253.614L366.433 281.052Z" fill="url(#paint31_linear_397:299)"/>
<path d="M401.831 265.772L387.07 241.202C386.513 240.251 385.292 239.932 384.342 240.488L348.197 250.506C347.246 251.061 346.926 252.282 347.482 253.232L365.898 282.454C366.455 283.404 367.676 283.724 368.626 283.168L401.117 268.499C402.066 267.944 402.387 266.723 401.831 265.772ZM368.426 278.301L352.818 253.071L384.546 243.52L398.084 265.695L368.426 278.301Z" fill="url(#paint32_linear_397:299)"/>
<path d="M389.988 258.054L365.883 267.566L363.931 264.767L388.398 255.61L389.988 258.054Z" fill="#FDE1A7"/>
<path d="M373.53 258.366C375.009 258.366 376.209 257.166 376.209 255.687C376.209 254.207 375.009 253.008 373.53 253.008C372.05 253.008 370.851 254.207 370.851 255.687C370.851 257.166 372.05 258.366 373.53 258.366Z" fill="#F95FC3"/>
<path d="M364.401 261.874C365.88 261.874 367.08 260.675 367.08 259.195C367.08 257.716 365.88 256.516 364.401 256.516C362.921 256.516 361.722 257.716 361.722 259.195C361.722 260.675 362.921 261.874 364.401 261.874Z" fill="#FE687E"/>
<path d="M382.096 254.969C383.427 254.969 384.507 253.889 384.507 252.558C384.507 251.227 383.427 250.147 382.096 250.147C380.765 250.147 379.686 251.227 379.686 252.558C379.686 253.889 380.765 254.969 382.096 254.969Z" fill="#00E2EC"/>
<path d="M422.473 438.977C421.693 425.706 424.677 409.433 424.566 404.34L402.872 403.097C402.872 403.097 402.454 418.619 402.65 432.056C402.872 447.228 406.028 490.749 405.088 497.559C404.501 501.803 401.034 504.542 397.825 506.564C399.367 507.353 402.098 507.897 406.003 505.964C410.42 503.778 415.396 501.335 418.905 501.214C418.763 498.922 418.62 496.777 418.597 495.345C418.487 488.423 423.414 454.979 422.473 438.977Z" fill="url(#paint33_linear_397:299)"/>
<path d="M406.003 505.964C402.098 507.896 399.368 507.353 397.826 506.563C396.99 507.089 396.172 507.57 395.427 508.012C392.588 509.699 388.04 510.361 388.533 512.121C388.92 513.505 399.646 514.135 405.393 512.497C408.107 511.725 412.757 509.23 412.757 509.23L412.937 512.622C412.937 512.622 418.093 513.006 418.647 512.396C419.488 511.47 419.2 506.016 418.906 501.212C415.397 501.335 410.421 503.778 406.003 505.964Z" fill="url(#paint34_linear_397:299)"/>
<path d="M448.335 506.418C452.949 504.135 458.171 501.573 461.694 501.667C461.55 499.378 461.381 497.229 461.291 495.787C461.014 491.358 460.904 483.717 461.458 467.659C462.012 451.602 459.133 440.307 458.136 430.783C457.139 421.258 457.139 411.181 457.028 406.088L436.374 408.634C436.374 408.634 437.963 423.841 439.364 437.205C440.689 449.83 448.722 490.305 447.781 497.115C447.202 501.301 443.058 504.729 439.981 506.927C441.486 507.763 444.28 508.425 448.335 506.418Z" fill="url(#paint35_linear_397:299)"/>
<path d="M431.225 513.284C431.225 514.225 441.978 514.589 447.725 512.952C450.439 512.179 455.089 509.685 455.089 509.685L455.269 513.076C455.269 513.076 460.792 513.284 461.346 512.675C462.183 511.752 461.992 506.408 461.693 501.667C458.17 501.573 452.948 504.135 448.335 506.418C444.279 508.426 441.485 507.763 439.98 506.927C439.125 507.537 438.347 508.057 437.758 508.467C435.045 510.349 431.225 511.457 431.225 513.284Z" fill="url(#paint36_linear_397:299)"/>
<path d="M450.494 326.686C452.82 330.23 459.134 341.526 461.458 353.319C463.603 364.198 463.451 370.428 464.614 378.9C465.777 387.372 471.757 405.976 471.424 407.139C471.092 408.302 468.434 410.046 463.231 410.185C459.341 410.288 456.476 409.964 449.499 412.289C442.522 414.615 434.659 415.944 425.135 414.947C415.612 413.95 408.082 409.964 403.32 409.853C398.557 409.742 392.245 409.742 391.581 408.413C390.916 407.084 395.241 396.806 396.176 390.362C397.234 383.087 399.554 369.21 404.648 355.478C409.422 342.608 416.165 327.793 416.165 327.793C416.165 327.793 426.076 327.738 433.219 327.572C440.362 327.406 450.494 326.686 450.494 326.686Z" fill="url(#paint37_linear_397:299)"/>
<path d="M431.503 410.97C429.395 410.97 427.255 410.854 425.066 410.624C419.811 410.075 415.074 408.6 411.268 407.415C408.107 406.432 405.378 405.582 403.305 405.534L401.992 405.505C398.296 405.429 394.107 405.344 392.208 404.647C391.863 404.521 391.687 404.138 391.813 403.794C391.939 403.45 392.32 403.272 392.666 403.4C394.355 404.019 398.605 404.107 402.019 404.177L403.335 404.205C405.594 404.257 408.407 405.132 411.662 406.146C415.608 407.375 420.079 408.766 425.204 409.303C433.614 410.183 441.27 409.348 449.288 406.676C455.4 404.639 458.438 404.602 461.656 404.564C462.164 404.558 462.678 404.551 463.212 404.537C467.873 404.412 469.815 403.025 470.299 402.602C470.575 402.361 470.994 402.388 471.236 402.666C471.477 402.942 471.448 403.362 471.172 403.603C470.443 404.239 468.212 405.733 463.246 405.866C462.706 405.88 462.185 405.886 461.671 405.893C458.56 405.93 455.623 405.964 449.708 407.936C443.591 409.976 437.682 410.97 431.503 410.97Z" fill="#CFAEFF"/>
<path d="M433.621 406.542C430.976 406.542 428.202 406.39 425.286 406.084C419.778 405.508 414.877 403.996 410.553 402.663C407.427 401.699 404.728 400.866 402.589 400.659C400.822 400.489 399.217 400.63 397.802 400.756C396.126 400.905 394.676 401.034 393.469 400.59C393.124 400.464 392.948 400.082 393.074 399.738C393.2 399.394 393.58 399.216 393.927 399.343C394.854 399.685 396.167 399.568 397.684 399.432C399.156 399.301 400.825 399.153 402.717 399.336C404.99 399.555 407.75 400.406 410.944 401.392C415.211 402.708 420.046 404.2 425.425 404.762C434.838 405.745 442.729 405.12 449.547 402.849C455.603 400.831 457.293 400.885 459.841 400.962C460.273 400.975 460.73 400.989 461.241 400.994C466.089 401.039 468.104 399.764 469.204 398.804C469.48 398.562 469.899 398.591 470.142 398.868C470.382 399.144 470.354 399.564 470.077 399.806C468.833 400.891 466.592 402.324 461.473 402.324C461.392 402.324 461.312 402.323 461.229 402.322C460.708 402.318 460.241 402.304 459.8 402.29C457.304 402.213 455.798 402.166 449.967 404.109C445.091 405.736 439.694 406.542 433.621 406.542Z" fill="#CFAEFF"/>
<path d="M388.092 256.061C387.082 256.397 385.378 257.307 385.71 258.968C386.042 260.629 389.035 263.546 390.032 263.988C391.028 264.431 390.363 261.792 389.476 260.629C388.59 259.466 391.062 262.112 391.856 261.847C392.438 261.653 392.632 260.546 391.995 258.802C391.428 257.25 393.961 255.812 392.853 255.59C391.746 255.369 389.42 255.618 388.092 256.061Z" fill="url(#paint38_linear_397:299)"/>
<path d="M403.671 275.281C403.958 274.905 412.037 269.305 412.636 269.085C413.478 268.778 426.573 285.877 428.4 287.788C430.227 289.698 425.985 299.23 422.496 299.894C419.008 300.559 402.916 276.271 403.671 275.281Z" fill="url(#paint39_linear_397:299)"/>
<path d="M380.561 255.313C381.736 254.139 387.594 254.815 388.369 255.036C389.145 255.258 391.082 253.652 392.245 253.597C393.408 253.541 396.965 254.192 399.056 255.369C401.372 256.673 412.953 269.433 412.953 269.433C412.953 269.433 412.788 272.755 409.88 274.748C406.965 276.746 405.095 275.833 405.095 275.833C405.095 275.833 400.993 268.353 399.581 267.44C398.169 266.526 394.681 268.063 391.809 267.358C389.101 266.695 385.338 263.204 386.377 262.29C387.48 261.32 390.117 263.559 391.304 263.951C393.062 264.533 396.357 263.835 396.425 262.497C396.508 260.877 391.259 259.375 387.289 258.179C384.482 257.333 379.607 256.268 380.561 255.313Z" fill="url(#paint40_linear_397:299)"/>
<path d="M406.103 276.701C404.326 276.701 403.304 275.841 403.237 275.782C402.96 275.542 402.93 275.122 403.17 274.845C403.411 274.568 403.832 274.539 404.107 274.779C404.184 274.842 406.119 276.396 409.518 274.191C412.134 272.493 412.287 269.439 412.289 269.408C412.303 269.042 412.612 268.753 412.977 268.77C413.343 268.784 413.629 269.09 413.616 269.456C413.611 269.609 413.452 273.223 410.241 275.307C408.603 276.368 407.208 276.701 406.103 276.701Z" fill="#1AA9E8"/>
<path d="M446.063 260.131C447.835 263.785 454.479 276.52 454.037 286.376C453.594 296.233 450.935 306.421 450.603 314.062C450.271 321.703 450.492 326.686 450.492 326.686C450.492 326.686 443.185 331.226 432.11 330.894C421.373 330.572 416.163 327.793 416.163 327.793C416.163 327.793 415.845 316.072 414.502 308.082C413.45 301.825 410.875 298.17 410.848 291.138C410.811 282.14 424.662 270.513 428.788 264.228C432.179 259.062 446.063 260.131 446.063 260.131Z" fill="url(#paint41_linear_397:299)"/>
<path d="M433.286 331.576C432.893 331.576 432.496 331.57 432.092 331.558C421.322 331.236 416.07 328.496 415.853 328.379C415.53 328.207 415.407 327.806 415.579 327.481C415.751 327.157 416.154 327.034 416.478 327.206C416.528 327.234 421.711 329.917 432.133 330.23C442.86 330.56 450.073 326.166 450.145 326.121C450.456 325.928 450.866 326.024 451.059 326.336C451.253 326.648 451.156 327.057 450.846 327.25C450.55 327.434 443.757 331.576 433.286 331.576Z" fill="#1AA9E8"/>
<path d="M456.639 223.669C458.3 223.752 463.386 222.435 467.187 221.593C474.691 219.932 482.065 220.031 483.964 225.247C485.598 229.732 482.881 233.457 483.328 236.598C483.937 240.862 496.673 244.46 496.921 252.988C497.159 261.163 490.443 264.117 488.615 267.689C486.788 271.26 483.15 282.099 470.509 281.227C463.285 280.728 461.291 276.465 461.29 273.503C461.29 269.699 464.945 266.775 463.2 264.034C461.456 261.293 455.866 263.109 454.646 259.882C453.318 256.365 456.307 253.486 458.549 251.742C460.792 249.998 464.114 248.171 463.366 245.596C462.619 243.021 458.051 242.373 458.217 239.782C458.412 236.764 463.953 234.524 463.034 231.477C462.343 229.179 458.383 229.649 454.978 228.985C451.573 228.32 456.639 223.669 456.639 223.669Z" fill="url(#paint42_linear_397:299)"/>
<path d="M444.399 245.07C443.969 248.918 446.06 260.131 446.06 260.131C446.06 260.131 440.854 265.529 433.213 265.889C429.464 266.066 428.784 264.228 428.784 264.228L430.335 248.835C430.335 248.835 432.67 244.454 437.422 242.634C442.173 240.813 443.956 242.523 443.956 242.523L444.399 245.07Z" fill="url(#paint43_linear_397:299)"/>
<path d="M442.297 217.163C435.541 214.284 430.508 214.409 430.508 214.409C425.242 217.273 411.241 243.461 420.038 249.831C425.468 253.763 434.783 249.752 440.973 244.407C441.352 244.526 441.756 244.591 442.175 244.591C444.332 244.591 446.079 242.899 446.079 240.811C446.079 240.215 445.932 239.654 445.679 239.152C446.249 238.253 446.689 237.373 446.948 236.542C448.473 231.645 449.051 220.043 442.297 217.163Z" fill="url(#paint44_linear_397:299)"/>
<path d="M431.803 233.013C431.704 233.013 431.602 232.999 431.502 232.967C430.978 232.801 430.687 232.241 430.852 231.716C431.159 230.746 432.275 228.938 432.984 228.263C433.382 227.885 434.014 227.899 434.394 228.298C434.773 228.697 434.757 229.327 434.358 229.707C433.899 230.144 432.954 231.681 432.753 232.316C432.619 232.742 432.227 233.013 431.803 233.013Z" fill="#0090B2"/>
<path d="M422.376 227.753C422.294 227.753 422.21 227.74 422.127 227.714C421.689 227.576 421.447 227.109 421.584 226.672C421.88 225.735 422.779 224.284 423.469 223.627C423.8 223.311 424.327 223.323 424.644 223.656C424.961 223.988 424.947 224.514 424.614 224.831C424.133 225.288 423.377 226.514 423.169 227.172C423.057 227.526 422.73 227.753 422.376 227.753Z" fill="#0090B2"/>
<path d="M431.858 236.941C431.167 236.941 430.519 236.782 429.933 236.469C428.707 235.813 427.903 234.568 427.67 232.96C427.443 231.409 427.779 229.695 428.613 228.134C429.913 225.702 432.166 224.13 434.352 224.13C435.043 224.13 435.691 224.289 436.277 224.603C438.754 225.927 439.347 229.666 437.598 232.938C436.298 235.369 434.045 236.941 431.858 236.941ZM434.351 225.126C432.557 225.126 430.603 226.524 429.492 228.603C428.757 229.978 428.46 231.473 428.656 232.815C428.843 234.102 429.464 235.086 430.403 235.588C430.843 235.823 431.333 235.943 431.858 235.943C433.654 235.943 435.608 234.546 436.719 232.467C438.208 229.679 437.798 226.546 435.806 225.481C435.367 225.246 434.877 225.126 434.351 225.126Z" fill="#9F36AD"/>
<path d="M420.714 230.671C420.221 230.671 419.761 230.559 419.348 230.338C417.357 229.273 417.059 226.077 418.671 223.061C419.89 220.78 421.924 219.249 423.731 219.249C424.225 219.249 424.685 219.36 425.098 219.582C426.086 220.109 426.686 221.184 426.788 222.608C426.885 223.948 426.524 225.457 425.775 226.858C424.557 229.138 422.522 230.671 420.714 230.671ZM423.732 220.245C422.305 220.245 420.585 221.596 419.55 223.53C418.247 225.969 418.37 228.684 419.817 229.459C420.085 229.601 420.386 229.673 420.714 229.673C422.143 229.673 423.863 228.322 424.896 226.388C425.558 225.15 425.877 223.833 425.795 222.678C425.718 221.608 425.304 220.819 424.629 220.459C424.361 220.317 424.059 220.245 423.732 220.245Z" fill="#9F36AD"/>
<path d="M426.738 225.69C424.12 227.863 416.857 231.449 416.659 232.722C416.396 234.425 420.288 235.373 421.174 235.373C422.061 235.373 422.708 232.971 425.076 229.676C426.411 227.82 428.129 224.534 426.738 225.69Z" fill="url(#paint45_linear_397:299)"/>
<path d="M429.384 228.302C429.186 228.302 428.999 228.184 428.921 227.989C428.238 226.28 427.362 225.77 425.893 226.226C425.629 226.309 425.351 226.161 425.27 225.899C425.188 225.635 425.335 225.356 425.597 225.275C427.58 224.658 428.969 225.425 429.847 227.619C429.949 227.875 429.825 228.164 429.569 228.267C429.509 228.291 429.446 228.302 429.384 228.302Z" fill="#9F36AD"/>
<path d="M417.868 239.13C417.962 239.52 418.203 239.923 418.481 240.255C418.764 240.589 419.108 240.862 419.488 241.032C420.249 241.387 421.134 241.252 421.922 240.864C422.169 240.742 422.468 240.843 422.59 241.09C422.712 241.338 422.611 241.637 422.364 241.758C422.353 241.763 422.342 241.769 422.332 241.773C421.84 241.974 421.308 242.128 420.748 242.143C420.191 242.167 419.617 242.045 419.121 241.785C418.624 241.529 418.21 241.154 417.887 240.728C417.57 240.295 417.311 239.829 417.203 239.264C417.168 239.08 417.289 238.902 417.473 238.866C417.653 238.831 417.826 238.945 417.868 239.12L417.868 239.13Z" fill="#954374"/>
<path d="M432.725 266.565C428.987 266.565 428.196 264.548 428.163 264.459C428.035 264.115 428.211 263.733 428.555 263.605C428.9 263.48 429.282 263.654 429.409 263.998C429.427 264.039 430.044 265.373 433.184 265.226C440.477 264.882 445.533 259.722 445.583 259.67C445.838 259.406 446.258 259.397 446.523 259.653C446.786 259.907 446.794 260.328 446.539 260.593C446.319 260.82 441.061 266.185 433.246 266.553C433.066 266.561 432.893 266.565 432.725 266.565Z" fill="#1AA9E8"/>
<path d="M441.113 237.177C440.408 237.35 439.399 237.041 439.472 235.601C439.61 232.888 444.266 228.728 444.152 224.887C444.012 220.222 435.25 219.184 429.228 216.831C422.744 214.297 422.833 206.808 424.452 204.359C426.238 201.659 429.394 202.545 430.723 203.874C432.052 205.203 432.66 206.679 433.825 206.643C435.167 206.601 434.668 203.985 436.703 203.985C438.764 203.985 440.548 207.786 441.964 209.356C444.386 212.042 457.097 216.232 457.743 225.358C458.631 237.871 446.173 247.617 444.788 247.617C442.43 247.617 442.555 244.888 443.561 244.342C444.57 243.796 446.468 242.643 445.988 240.008C445.507 237.373 442.683 236.792 441.113 237.177Z" fill="url(#paint46_linear_397:299)"/>
<path d="M443.581 237.29C444.692 237.706 445.558 238.598 445.908 239.71C445.991 239.592 446.03 239.443 445.987 239.292C445.189 236.435 441.027 233.898 438.792 232.535C438.32 232.247 437.913 231.999 437.672 231.829C437.447 231.67 437.136 231.724 436.978 231.948C436.818 232.173 436.871 232.484 437.097 232.643C437.364 232.832 437.766 233.076 438.273 233.385C439.729 234.274 442.048 235.688 443.581 237.29Z" fill="#9F36AD"/>
<path d="M365.195 268.875C366.539 268.613 368.063 273.004 368.727 275.496C369.392 277.988 369.873 282.205 372.312 284.992C374.541 287.539 381.67 289.865 381.67 289.865C381.67 289.865 382.445 294.017 380.562 296.343C378.68 298.668 375.902 298.551 375.902 298.551C375.902 298.551 367.717 290.418 364.283 288.037C360.851 285.657 358.747 282.445 358.22 280.147C357.657 277.689 357.252 276.465 357.529 273.752C357.678 272.279 358.257 270.324 358.257 270.324C358.257 270.324 363.354 278.413 364.671 280.507C366.056 280.23 365.392 276.41 365.225 274.859C365.059 273.309 363.827 269.142 365.195 268.875Z" fill="url(#paint47_linear_397:299)"/>
<path d="M437.204 270.938C443.017 269.931 446.43 272.549 448.249 276.493C450.243 280.811 449.827 286.155 446.727 289.255C443.627 292.356 423.661 316.082 413.144 315.781C401.406 315.445 375.451 300.629 375.189 299.111C374.926 297.593 379.77 289.191 380.45 289.435C381.128 289.68 407.966 299.819 411.954 298.745C415.941 297.672 433.164 271.639 437.204 270.938Z" fill="url(#paint48_linear_397:299)"/>
<path d="M375.184 299.762C374.868 299.762 374.592 299.546 374.536 299.225C374.23 297.462 378.531 290.08 379.768 289.041C380.077 288.781 380.381 288.704 380.677 288.81C381.022 288.934 381.201 289.315 381.077 289.66C380.996 289.886 380.804 290.041 380.585 290.086C379.559 290.947 375.699 297.842 375.846 298.999C375.891 299.357 375.644 299.701 375.287 299.754C375.253 299.76 375.218 299.762 375.184 299.762Z" fill="#1AA9E8"/>
<path d="M185.113 418.323C185.113 419.352 185.948 420.186 186.977 420.186H228.282C229.311 420.186 230.146 419.352 230.146 418.323V390.992C230.146 389.963 229.311 389.129 228.282 389.129H186.977C185.948 389.129 185.113 389.963 185.113 390.992V418.323Z" fill="url(#paint49_linear_397:299)"/>
<path d="M229.722 388.047H185.536C184.435 388.047 183.543 388.939 183.543 390.04V419.276C183.543 420.377 184.435 421.269 185.536 421.269H229.722C230.823 421.269 231.715 420.377 231.715 419.276V390.04C231.715 388.939 230.823 388.047 229.722 388.047ZM228.393 417.947H186.865V391.369H228.393V417.947Z" fill="url(#paint50_linear_397:299)"/>
<path d="M220.666 406.696H185.505V410.019H220.666V406.696Z" fill="#FDE1A7"/>
<path d="M216.101 398.847L220.665 404.18L211.564 404.205L216.101 398.847Z" fill="#00E2EC"/>
<path d="M203.984 404.205C205.464 404.205 206.663 403.005 206.663 401.526C206.663 400.046 205.464 398.847 203.984 398.847C202.505 398.847 201.305 400.046 201.305 401.526C201.305 403.005 202.505 404.205 203.984 404.205Z" fill="#F95FC3"/>
<path d="M146.228 518.025C147.452 521.091 152.691 522.376 157.086 523.417C161.823 524.538 165.197 525.185 165.004 527.071C164.783 529.231 154.484 529.95 147.009 529.729C139.534 529.508 134.119 528.627 133.012 527.796C131.843 526.919 131.894 518.987 132.17 517.216C132.447 515.444 146.228 518.025 146.228 518.025Z" fill="url(#paint51_linear_397:299)"/>
<path d="M138.426 337.982C137.429 341.636 134.882 350.053 133.996 365.999C133.11 381.946 134.217 430.894 134.217 442.854C134.217 454.814 131.338 476.075 131.116 490.472C130.894 504.868 130.609 518.405 131.449 518.932C133.304 520.094 143.935 520.925 147.506 518.932C148.129 518.584 153.929 468.324 157.916 447.283C160.546 433.401 170.762 358.025 171.426 346.951C172.091 335.877 138.426 337.982 138.426 337.982Z" fill="url(#paint52_linear_397:299)"/>
<path d="M140.743 515.564C135.814 515.564 132.006 514.58 130.614 513.877C130.287 513.712 130.155 513.313 130.32 512.985C130.485 512.657 130.885 512.525 131.213 512.691C133.141 513.664 140.096 515.204 148.201 513.442C148.561 513.364 148.914 513.592 148.991 513.951C149.069 514.309 148.842 514.663 148.483 514.741C145.741 515.337 143.112 515.564 140.743 515.564Z" fill="#CD218F"/>
<path d="M200.163 521.867C201.214 523.75 205.899 526.087 210.295 527.127C215.032 528.249 218.406 528.896 218.214 530.782C217.992 532.941 207.693 533.661 200.218 533.439C192.743 533.218 187.705 532.941 186.597 532.11C185.428 531.233 184.825 524.967 185.102 523.196C185.379 521.424 200.163 521.867 200.163 521.867Z" fill="url(#paint53_linear_397:299)"/>
<path d="M191.193 345.844C191.691 352.488 196.176 433.052 197.173 446.341C198.17 459.63 202.543 520.972 201.99 522.144C201.076 524.081 186.957 526.241 184.798 524.33C183.416 523.108 178.956 492.022 175.412 471.646C171.869 451.269 164.117 415.168 160.13 400.994C156.143 386.819 148.835 363.618 152.987 343.02C156.808 338.701 165.283 338.798 174.582 340.528C184.156 342.31 191.193 345.844 191.193 345.844Z" fill="url(#paint54_linear_397:299)"/>
<path d="M163.191 414.397C162.42 411.272 161.631 408.153 160.797 405.047C159.972 401.94 159.035 398.866 158.134 395.771C156.32 389.587 154.615 383.354 153.316 377.015C153.243 376.656 153.474 376.305 153.834 376.23C154.194 376.157 154.544 376.388 154.619 376.747C154.619 376.75 154.62 376.757 154.621 376.759C155.797 383.064 157.383 389.296 159.085 395.501C159.93 398.604 160.816 401.708 161.589 404.841C162.371 407.97 163.106 411.107 163.822 414.248C163.862 414.423 163.753 414.596 163.577 414.636C163.405 414.676 163.233 414.569 163.191 414.397Z" fill="#CD218F"/>
<path d="M153.961 377.509C153.875 377.509 153.787 377.493 153.703 377.457C151.759 376.637 147.354 373.46 146.272 371.656C146.083 371.341 146.185 370.933 146.499 370.745C146.814 370.556 147.222 370.658 147.411 370.973C148.282 372.423 152.333 375.436 154.22 376.234C154.559 376.377 154.717 376.766 154.574 377.104C154.466 377.357 154.22 377.509 153.961 377.509Z" fill="#CD218F"/>
<path d="M188.786 520.445C186.177 520.445 184.067 520.162 183.164 519.824C182.82 519.695 182.646 519.312 182.774 518.968C182.903 518.625 183.287 518.453 183.63 518.579C185.758 519.375 195.773 519.802 201.528 516.198C201.84 516.003 202.249 516.098 202.444 516.409C202.639 516.72 202.544 517.13 202.233 517.325C198.409 519.719 192.959 520.445 188.786 520.445Z" fill="#CD218F"/>
<path d="M166.747 228.94C170.734 220.967 186.82 186.488 188.481 184.384C190.142 182.28 191.445 181.866 191.914 178.681C192.303 176.037 192.093 174.21 192.578 172.148C193.243 169.324 197.251 161.784 196.233 159.578C195.568 158.138 192.911 161.96 191.914 163.178C190.917 164.395 187.957 169.153 187.25 168.712C187.062 166.86 187.305 160.631 187.305 160.631C186.045 162.126 184.301 165.946 183.304 169.933C182.307 173.92 182.612 175.304 180.397 179.844C178.183 184.385 159.965 204.318 150.663 225.082C150.125 226.283 149.603 227.508 149.092 228.753C153.023 231.51 158.278 234.29 164.607 235.395C165.27 232.711 165.992 230.451 166.747 228.94Z" fill="url(#paint55_linear_397:299)"/>
<path d="M173.365 269.599C161.561 266.286 162.723 268.08 161.435 267.504C160.022 266.09 161.771 246.872 164.606 235.394C158.277 234.29 153.023 231.51 149.091 228.752C140.746 249.089 136.025 274.997 135.712 295.346C135.38 316.941 136.211 338.535 136.377 339.532C136.543 340.528 151.652 349.83 168.436 349.997C185.158 350.163 191.194 345.844 191.194 345.844C191.194 345.844 194.545 286.643 194.004 284.987C193.463 283.33 185.168 272.912 173.365 269.599Z" fill="url(#paint56_linear_397:299)"/>
<path d="M170.79 345.972C170.276 345.972 169.754 345.967 169.217 345.958C149.385 345.615 137.085 336.869 135.647 335.275C135.401 335.002 135.423 334.582 135.696 334.336C135.968 334.091 136.388 334.113 136.634 334.384C137.797 335.674 149.926 344.296 169.24 344.629C185.54 344.911 190.986 340.688 191.039 340.645C191.325 340.416 191.744 340.462 191.973 340.748C192.203 341.034 192.157 341.453 191.871 341.682C191.646 341.863 186.338 345.972 170.79 345.972Z" fill="#05C5DA"/>
<path d="M183.426 282.671C183.187 282.671 182.956 282.542 182.837 282.315C180.76 278.36 173.661 272.837 170.473 271.597C170.131 271.464 169.962 271.079 170.095 270.737C170.227 270.395 170.613 270.226 170.954 270.358C174.399 271.698 181.773 277.431 184.013 281.697C184.184 282.022 184.059 282.423 183.734 282.594C183.635 282.647 183.53 282.671 183.426 282.671Z" fill="#05C5DA"/>
<path d="M150.424 262.483C150.107 262.483 149.827 262.256 149.771 261.933C148.412 254.129 152.762 241.612 154.852 235.597C155.304 234.296 155.661 233.269 155.802 232.738C155.896 232.383 156.26 232.172 156.615 232.267C156.97 232.362 157.181 232.725 157.086 233.08C156.933 233.659 156.586 234.655 156.107 236.034C154.053 241.943 149.78 254.24 151.079 261.705C151.142 262.067 150.899 262.411 150.538 262.474C150.5 262.48 150.462 262.483 150.424 262.483Z" fill="#05C5DA"/>
<path d="M142.357 265.28C142.172 265.28 141.988 265.203 141.856 265.054C141.615 264.777 141.643 264.358 141.919 264.116C143.25 262.952 150.426 259.005 158.727 262.509C159.066 262.652 159.224 263.041 159.082 263.379C158.939 263.717 158.55 263.876 158.211 263.733C150.499 260.479 143.795 264.24 142.794 265.116C142.668 265.226 142.512 265.28 142.357 265.28Z" fill="#05C5DA"/>
<path d="M178.977 223.337C181.507 227.527 186.541 228.32 186.956 229.732C187.372 231.144 184.631 233.968 183.8 234.466C182.97 234.965 178.983 226.825 178.651 225.912C178.319 224.998 178.977 223.337 178.977 223.337Z" fill="url(#paint57_linear_397:299)"/>
<path d="M171.967 214.575C171.967 214.575 160.463 217.938 154.815 225.801C151.697 230.143 155.568 237.79 159.66 243.771C158.29 244.942 157.584 246.288 157.584 246.288L157.058 247.755C156.753 251.106 153.108 262.64 151.779 266.073C151.284 267.35 154.746 272.045 162.29 272.423C168.935 272.755 173.365 269.599 173.365 269.599L174.001 255.022C174.001 255.022 174.224 254.11 174.465 252.868C177.678 252.459 181.332 251.199 184.383 248.06C192.024 240.197 176.244 218.022 171.967 214.575Z" fill="url(#paint58_linear_397:299)"/>
<path d="M169.655 234.771C170.496 234.201 170.264 232.445 168.271 230.452C166.277 228.459 164.173 226.687 164.561 224.583C164.946 222.496 171.817 220.271 175.043 217.88C180.342 213.952 182.058 204.428 178.847 203.819C174.441 202.984 173.034 209.024 171.87 209.024C170.486 209.024 171.194 205.795 169.209 206.028C166.332 206.366 165.225 210.463 163.564 211.737C161.075 213.645 147.839 217.717 147.008 227.572C146.332 235.595 151.357 240.157 153.57 243.021C155.923 246.066 156.649 247.632 157.058 247.755C157.792 247.975 161.022 247.494 163.786 246.343C166.776 245.097 168.603 243.519 168.021 242.771C167.44 242.024 163.093 241.189 162.789 237.539C162.568 234.881 164.367 233.718 165.779 233.968C167.191 234.217 168.713 235.408 169.655 234.771Z" fill="url(#paint59_linear_397:299)"/>
<path d="M171.675 237.456C172.196 237.472 172.589 241 174.624 241.485C175.98 241.807 180.341 238.785 182.307 237.914C183.501 237.384 185.63 237.021 185.767 237.567C185.904 238.114 186.211 240.115 186.958 241.9C187.589 243.408 189.035 244.793 188.329 247.88C187.292 252.414 179.4 255.812 174.002 255.023C173.877 253.735 173.697 251.739 172.797 248.129C171.758 243.963 170.142 240.17 170.18 239.409C170.236 238.315 170.79 237.429 171.675 237.456Z" fill="url(#paint60_linear_397:299)"/>
<path d="M177.462 230.009C177.025 230.009 176.625 229.72 176.502 229.279C176.274 228.455 175.229 226.641 175.019 226.363C174.692 225.928 174.767 225.301 175.198 224.968C175.628 224.635 176.24 224.698 176.58 225.123C176.848 225.457 178.101 227.584 178.423 228.746C178.571 229.277 178.26 229.826 177.73 229.974C177.64 229.997 177.55 230.009 177.462 230.009Z" fill="#0090B2"/>
<path d="M182.659 240.861C182.776 241.058 183.138 241.3 183.46 241.429C183.796 241.567 184.159 241.635 184.507 241.595C185.213 241.534 185.807 240.96 186.174 240.247C186.241 240.116 186.4 240.064 186.531 240.131C186.655 240.194 186.708 240.344 186.655 240.471C186.479 240.884 186.25 241.292 185.913 241.637C185.583 241.985 185.126 242.247 184.634 242.348C184.14 242.451 183.633 242.403 183.168 242.26C182.701 242.097 182.269 241.929 181.858 241.454L181.851 241.445C181.67 241.236 181.692 240.92 181.901 240.739C182.11 240.558 182.427 240.581 182.607 240.79C182.626 240.811 182.644 240.837 182.659 240.861Z" fill="#F1D2F8"/>
<path d="M162.289 272.423C168.934 272.755 173.363 269.599 173.363 269.599L173.595 264.288C171.922 265.188 168.311 266.735 163.553 266.497C157.778 266.208 154.403 263.392 153.356 261.513C152.729 263.442 152.158 265.09 151.778 266.073C151.284 267.35 154.745 272.045 162.289 272.423Z" fill="url(#paint61_linear_397:299)"/>
<path d="M163.28 273.112C162.945 273.112 162.604 273.104 162.256 273.086C156.681 272.808 153.083 270.213 151.696 268.076C151.128 267.201 150.937 266.404 151.158 265.832C151.291 265.49 151.676 265.32 152.017 265.452C152.358 265.584 152.528 265.966 152.399 266.308C152.379 266.39 152.421 266.836 152.977 267.594C154.34 269.449 157.51 271.518 162.322 271.758C168.663 272.07 172.935 269.087 172.978 269.057C173.276 268.844 173.691 268.913 173.905 269.212C174.117 269.511 174.048 269.926 173.749 270.139C173.571 270.267 169.502 273.112 163.28 273.112Z" fill="#05C5DA"/>
<path d="M206.602 378.277C204.719 372.515 202.735 335.097 199.371 309.073C190.034 309.32 182.439 311.66 178.411 313.585C179.359 317.964 180.724 323.693 182.89 331.226C188.815 351.839 196.76 375.329 196.898 380.395C196.98 383.384 194.436 386.892 194.111 391.306C193.894 394.265 195.098 399.083 196.234 399C197.674 398.895 197.553 394.51 198.13 392.438C199.044 389.157 200.996 388.036 200.996 388.036C200.996 388.036 205.149 388.047 212.15 388.047C211.167 384.517 207.422 380.789 206.602 378.277Z" fill="url(#paint62_linear_397:299)"/>
<path d="M193.464 284.272C186.82 277.184 174.084 284.604 172.867 293.906C172.606 295.895 174.417 298.226 175.746 301.658C176.534 303.694 177.028 307.205 178.409 313.585C182.437 311.66 190.032 309.32 199.369 309.073C197.763 296.641 195.841 286.807 193.464 284.272Z" fill="url(#paint63_linear_397:299)"/>
<path d="M178.41 314.25C178.162 314.25 177.924 314.11 177.81 313.872C177.652 313.541 177.792 313.144 178.123 312.986C180.208 311.989 187.902 308.712 199.352 308.409C199.72 308.411 200.024 308.689 200.033 309.056C200.043 309.422 199.754 309.728 199.387 309.737C190.498 309.973 182.87 312.189 178.696 314.185C178.604 314.229 178.506 314.25 178.41 314.25Z" fill="#05C5DA"/>
<path d="M172.867 294.571C172.838 294.571 172.809 294.569 172.78 294.566C172.416 294.518 172.159 294.184 172.207 293.82C172.913 288.433 177.487 283.216 183.085 281.414C187.288 280.061 191.248 280.936 193.949 283.818C194.2 284.086 194.186 284.506 193.919 284.758C193.652 285.009 193.231 284.996 192.979 284.728C189.782 281.317 185.663 281.98 183.492 282.68C178.358 284.332 174.167 289.09 173.525 293.993C173.481 294.327 173.196 294.571 172.867 294.571Z" fill="#05C5DA"/>
<path d="M393.921 217.927L386.928 217.318L393.406 210.926L393.921 217.927Z" fill="#F95FC3"/>
<path d="M369.209 239.312C368.929 239.312 368.669 239.134 368.578 238.854C365.168 228.435 371.9 221.979 383.053 211.281C385.356 209.072 387.966 206.568 390.664 203.849C406.543 187.842 403.443 171.588 402.114 166.987C402.012 166.635 402.216 166.267 402.569 166.165C402.923 166.065 403.29 166.267 403.391 166.619C404.771 171.395 407.997 188.264 391.607 204.784C388.898 207.515 386.281 210.026 383.973 212.239C373.196 222.576 366.691 228.815 369.84 238.44C369.954 238.789 369.764 239.164 369.415 239.278C369.347 239.301 369.277 239.312 369.209 239.312Z" fill="#1AA9E8"/>
<path d="M400.744 208.222L398.386 205.882C404.42 199.799 408.294 193.024 409.901 185.747L413.145 186.463C411.401 194.365 407.229 201.685 400.744 208.222Z" fill="#00E2EC"/>
<path d="M402.754 169.434C404.206 169.434 405.384 168.257 405.384 166.804C405.384 165.352 404.206 164.174 402.754 164.174C401.301 164.174 400.124 165.352 400.124 166.804C400.124 168.257 401.301 169.434 402.754 169.434Z" fill="#FDE1A7"/>
<path d="M363.229 241.969C363.126 241.969 363.02 241.945 362.922 241.893C362.727 241.791 358.162 239.299 359.251 231.687C359.867 227.374 362.678 223.745 365.655 219.904C369.525 214.909 373.528 209.743 372.978 202.596C372.765 199.828 371.344 197.394 368.754 195.363C354.881 184.483 312.053 187.413 301.171 189.211C300.804 189.268 300.467 189.026 300.408 188.664C300.347 188.302 300.592 187.959 300.954 187.9C311.964 186.08 355.351 183.163 369.574 194.317C372.469 196.588 374.06 199.339 374.302 202.495C374.892 210.152 370.542 215.766 366.705 220.718C363.839 224.416 361.132 227.91 360.566 231.875C359.617 238.516 363.382 240.632 363.542 240.719C363.864 240.893 363.987 241.294 363.815 241.617C363.696 241.841 363.466 241.969 363.229 241.969Z" fill="#1AA9E8"/>
<path d="M351.649 196.973C345.295 195.929 337.715 195.393 329.118 195.381L329.123 192.058C337.899 192.071 345.658 192.621 352.188 193.695L351.649 196.973Z" fill="#C7A0F6"/>
<path d="M301.062 191.185C302.515 191.185 303.692 190.008 303.692 188.555C303.692 187.103 302.515 185.926 301.062 185.926C299.61 185.926 298.433 187.103 298.433 188.555C298.433 190.008 299.61 191.185 301.062 191.185Z" fill="#FDE1A7"/>
<path d="M110.762 249.811L108.356 256.406L103.867 248.491L110.762 249.811Z" fill="#F95FC3"/>
<path d="M179.597 304.94C179.071 304.94 178.548 304.936 178.022 304.928C151.47 304.527 127.836 294.199 111.474 275.846C92.2279 254.258 83.0924 226.898 87.0352 202.656C89.996 184.455 100.038 169.613 115.313 160.864C115.632 160.681 116.038 160.792 116.22 161.111C116.403 161.429 116.292 161.835 115.974 162.018C101.053 170.564 91.2418 185.072 88.3469 202.87C84.4672 226.72 93.483 253.67 112.466 274.962C146.656 313.312 208.849 313.386 254.053 275.128C261.873 268.51 268.54 261.685 274.988 255.084C290.325 239.384 303.572 225.824 323.667 225.32C342.44 224.849 351.763 234.542 356.281 242.757C356.459 243.078 356.341 243.482 356.02 243.659C355.697 243.837 355.293 243.719 355.117 243.397C350.776 235.506 341.811 226.198 323.701 226.648C304.144 227.139 291.074 240.52 275.939 256.013C269.469 262.635 262.779 269.483 254.912 276.141C232.927 294.748 206.24 304.94 179.597 304.94Z" fill="#1AA9E8"/>
<path d="M101.369 242.472C98.2556 233.617 96.5985 224.667 96.4443 215.869L99.7659 215.81C99.9141 224.252 101.508 232.851 104.503 241.37L101.369 242.472Z" fill="#C7A0F6"/>
<path d="M203.363 296.974L202.638 293.732C210.404 291.993 218.089 289.379 225.479 285.96L226.874 288.976C219.271 292.494 211.361 295.185 203.363 296.974Z" fill="#00E2EC"/>
<path d="M115.645 164.071C117.097 164.071 118.274 162.894 118.274 161.441C118.274 159.989 117.097 158.812 115.645 158.812C114.192 158.812 113.015 159.989 113.015 161.441C113.015 162.894 114.192 164.071 115.645 164.071Z" fill="#FDE1A7"/>
<path d="M337.295 348.667L330.396 349.97L334.907 342.065L337.295 348.667Z" fill="#00E2EC"/>
<path d="M286.521 364.029C285.604 364.029 284.72 364.005 283.875 363.957C283.509 363.937 283.229 363.623 283.249 363.256C283.27 362.89 283.592 362.613 283.95 362.631C296.763 363.357 318.798 358.688 326.982 342.881C330.644 335.806 331.671 325.662 332.758 314.923C334.56 297.124 336.423 278.721 350.258 270.196C350.57 270.003 350.979 270.101 351.172 270.414C351.364 270.726 351.268 271.135 350.955 271.328C337.679 279.508 335.849 297.58 334.08 315.057C332.98 325.926 331.94 336.193 328.162 343.493C320.231 358.809 299.885 364.029 286.521 364.029Z" fill="#1AA9E8"/>
<path d="M339.557 335.808L336.324 335.042C337.68 329.33 338.342 322.784 339.044 315.854C339.242 313.905 339.44 311.941 339.657 309.979L342.96 310.344C342.745 312.296 342.546 314.25 342.35 316.189C341.637 323.232 340.963 329.883 339.557 335.808Z" fill="#F95FC3"/>
<path d="M283.914 365.924C285.366 365.924 286.544 364.746 286.544 363.294C286.544 361.841 285.366 360.664 283.914 360.664C282.462 360.664 281.284 361.841 281.284 363.294C281.284 364.746 282.462 365.924 283.914 365.924Z" fill="#C7A0F6"/>
<defs>
<linearGradient id="paint0_linear_397:299" x1="134.066" y1="101.853" x2="443.844" y2="411.631" gradientUnits="userSpaceOnUse">
<stop stop-color="#DBEFFF"/>
<stop offset="1" stop-color="#F7EBFF"/>
</linearGradient>
<linearGradient id="paint1_linear_397:299" x1="416.339" y1="526.219" x2="416.339" y2="496.242" gradientUnits="userSpaceOnUse">
<stop stop-color="#F7EBFF"/>
<stop offset="1" stop-color="#DBEFFF"/>
</linearGradient>
<linearGradient id="paint2_linear_397:299" x1="173.703" y1="542.525" x2="173.703" y2="514.998" gradientUnits="userSpaceOnUse">
<stop stop-color="#F7EBFF"/>
<stop offset="1" stop-color="#DBEFFF"/>
</linearGradient>
<linearGradient id="paint3_linear_397:299" x1="258.034" y1="330.867" x2="273.91" y2="346.744" gradientUnits="userSpaceOnUse">
<stop stop-color="#FF57BD"/>
<stop offset="1" stop-color="#FE6A77"/>
</linearGradient>
<linearGradient id="paint4_linear_397:299" x1="258.032" y1="355.358" x2="273.909" y2="371.235" gradientUnits="userSpaceOnUse">
<stop stop-color="#FF57BD"/>
<stop offset="1" stop-color="#FE6A77"/>
</linearGradient>
<linearGradient id="paint5_linear_397:299" x1="258.033" y1="379.849" x2="273.909" y2="395.725" gradientUnits="userSpaceOnUse">
<stop stop-color="#FF57BD"/>
<stop offset="1" stop-color="#FE6A77"/>
</linearGradient>
<linearGradient id="paint6_linear_397:299" x1="233.656" y1="235.9" x2="322.401" y2="324.645" gradientUnits="userSpaceOnUse">
<stop stop-color="#706AED"/>
<stop offset="1" stop-color="#271068"/>
</linearGradient>
<linearGradient id="paint7_linear_397:299" x1="240.652" y1="247.229" x2="275.813" y2="247.229" gradientUnits="userSpaceOnUse">
<stop stop-color="white"/>
<stop offset="1" stop-color="#F1D1F8"/>
</linearGradient>
<linearGradient id="paint8_linear_397:299" x1="310.087" y1="312.954" x2="310.087" y2="248.503" gradientUnits="userSpaceOnUse">
<stop stop-color="#FDE1A7"/>
<stop offset="1" stop-color="#F9A144"/>
</linearGradient>
<linearGradient id="paint9_linear_397:299" x1="304.771" y1="261.183" x2="315.402" y2="261.183" gradientUnits="userSpaceOnUse">
<stop stop-color="#00E2EC"/>
<stop offset="1" stop-color="#0090B2"/>
</linearGradient>
<linearGradient id="paint10_linear_397:299" x1="278.029" y1="312.954" x2="278.029" y2="262.623" gradientUnits="userSpaceOnUse">
<stop stop-color="#1AA9E8"/>
<stop offset="0.4223" stop-color="#3D80EF"/>
<stop offset="0.7909" stop-color="#5662F4"/>
<stop offset="1" stop-color="#5F57F6"/>
</linearGradient>
<linearGradient id="paint11_linear_397:299" x1="272.714" y1="277.434" x2="283.345" y2="277.434" gradientUnits="userSpaceOnUse">
<stop stop-color="#00E2EC"/>
<stop offset="1" stop-color="#0090B2"/>
</linearGradient>
<linearGradient id="paint12_linear_397:299" x1="294.06" y1="312.954" x2="294.06" y2="271.925" gradientUnits="userSpaceOnUse">
<stop stop-color="#FF57BD"/>
<stop offset="1" stop-color="#FE6A77"/>
</linearGradient>
<linearGradient id="paint13_linear_397:299" x1="288.744" y1="282.085" x2="299.375" y2="282.085" gradientUnits="userSpaceOnUse">
<stop stop-color="#00E2EC"/>
<stop offset="1" stop-color="#0090B2"/>
</linearGradient>
<linearGradient id="paint14_linear_397:299" x1="261.999" y1="312.954" x2="261.999" y2="253.653" gradientUnits="userSpaceOnUse">
<stop stop-color="#C7A0F6"/>
<stop offset="1" stop-color="#FF57BD"/>
</linearGradient>
<linearGradient id="paint15_linear_397:299" x1="256.684" y1="264.588" x2="267.315" y2="264.588" gradientUnits="userSpaceOnUse">
<stop stop-color="#00E2EC"/>
<stop offset="1" stop-color="#0090B2"/>
</linearGradient>
<linearGradient id="paint16_linear_397:299" x1="245.969" y1="312.954" x2="245.969" y2="282.888" gradientUnits="userSpaceOnUse">
<stop stop-color="#FDE1A7"/>
<stop offset="1" stop-color="#F9A144"/>
</linearGradient>
<linearGradient id="paint17_linear_397:299" x1="240.653" y1="291.941" x2="251.284" y2="291.941" gradientUnits="userSpaceOnUse">
<stop stop-color="#00E2EC"/>
<stop offset="1" stop-color="#0090B2"/>
</linearGradient>
<linearGradient id="paint18_linear_397:299" x1="114.866" y1="103.405" x2="189.947" y2="178.487" gradientUnits="userSpaceOnUse">
<stop stop-color="#00E2EC"/>
<stop offset="1" stop-color="#0090B2"/>
</linearGradient>
<linearGradient id="paint19_linear_397:299" x1="156.644" y1="121.926" x2="192.69" y2="121.926" gradientUnits="userSpaceOnUse">
<stop stop-color="white"/>
<stop offset="1" stop-color="#F1D1F8"/>
</linearGradient>
<linearGradient id="paint20_linear_397:299" x1="187.152" y1="158.808" x2="222.59" y2="158.808" gradientUnits="userSpaceOnUse">
<stop stop-color="#FDE1A7"/>
<stop offset="1" stop-color="#F9A144"/>
</linearGradient>
<linearGradient id="paint21_linear_397:299" x1="214.282" y1="118.528" x2="301.719" y2="118.528" gradientUnits="userSpaceOnUse">
<stop stop-color="#5A55F8"/>
<stop offset="1" stop-color="#8C6AE2"/>
</linearGradient>
<linearGradient id="paint22_linear_397:299" x1="201.923" y1="179.268" x2="316.499" y2="179.268" gradientUnits="userSpaceOnUse">
<stop stop-color="#FF57BD"/>
<stop offset="1" stop-color="#FE6A77"/>
</linearGradient>
<linearGradient id="paint23_linear_397:299" x1="226.53" y1="178.625" x2="272.517" y2="178.625" gradientUnits="userSpaceOnUse">
<stop stop-color="#C7A0F6"/>
<stop offset="1" stop-color="#FF57BD"/>
</linearGradient>
<linearGradient id="paint24_linear_397:299" x1="251.826" y1="161.168" x2="278.846" y2="161.168" gradientUnits="userSpaceOnUse">
<stop stop-color="#994574"/>
<stop offset="1" stop-color="#43256F"/>
</linearGradient>
<linearGradient id="paint25_linear_397:299" x1="232.731" y1="145.998" x2="251.837" y2="165.104" gradientUnits="userSpaceOnUse">
<stop stop-color="#1AA9E8"/>
<stop offset="0.4223" stop-color="#3D80EF"/>
<stop offset="0.7909" stop-color="#5662F4"/>
<stop offset="1" stop-color="#5F57F6"/>
</linearGradient>
<linearGradient id="paint26_linear_397:299" x1="343.836" y1="70.7707" x2="461.678" y2="188.613" gradientUnits="userSpaceOnUse">
<stop stop-color="#C91C91"/>
<stop offset="1" stop-color="#FE6A77"/>
</linearGradient>
<linearGradient id="paint27_linear_397:299" x1="341.403" y1="110.409" x2="386.872" y2="110.409" gradientUnits="userSpaceOnUse">
<stop stop-color="white"/>
<stop offset="1" stop-color="#F1D1F8"/>
</linearGradient>
<linearGradient id="paint28_linear_397:299" x1="406.63" y1="159.357" x2="406.63" y2="98.5558" gradientUnits="userSpaceOnUse">
<stop stop-color="#994574"/>
<stop offset="1" stop-color="#9F36AD"/>
</linearGradient>
<linearGradient id="paint29_linear_397:299" x1="341.405" y1="132.89" x2="464.106" y2="132.89" gradientUnits="userSpaceOnUse">
<stop stop-color="#FE6A77"/>
<stop offset="1" stop-color="#FF57BD"/>
</linearGradient>
<linearGradient id="paint30_linear_397:299" x1="251.378" y1="82.0044" x2="310.07" y2="82.0044" gradientUnits="userSpaceOnUse">
<stop stop-color="#FDE1A7"/>
<stop offset="1" stop-color="#F9A144"/>
</linearGradient>
<linearGradient id="paint31_linear_397:299" x1="348.886" y1="261.686" x2="400.428" y2="261.686" gradientUnits="userSpaceOnUse">
<stop stop-color="#00E2EC"/>
<stop offset="1" stop-color="#0090B2"/>
</linearGradient>
<linearGradient id="paint32_linear_397:299" x1="356.632" y1="241.976" x2="392.182" y2="277.527" gradientUnits="userSpaceOnUse">
<stop stop-color="#994574"/>
<stop offset="1" stop-color="#43256F"/>
</linearGradient>
<linearGradient id="paint33_linear_397:299" x1="397.825" y1="455.191" x2="424.57" y2="455.191" gradientUnits="userSpaceOnUse">
<stop stop-color="#F4BEA3"/>
<stop offset="1" stop-color="#E8878E"/>
</linearGradient>
<linearGradient id="paint34_linear_397:299" x1="388.496" y1="507.343" x2="419.202" y2="507.343" gradientUnits="userSpaceOnUse">
<stop stop-color="#706AED"/>
<stop offset="1" stop-color="#271068"/>
</linearGradient>
<linearGradient id="paint35_linear_397:299" x1="436.374" y1="456.913" x2="461.694" y2="456.913" gradientUnits="userSpaceOnUse">
<stop stop-color="#F4BEA3"/>
<stop offset="1" stop-color="#E8878E"/>
</linearGradient>
<linearGradient id="paint36_linear_397:299" x1="431.225" y1="507.874" x2="461.948" y2="507.874" gradientUnits="userSpaceOnUse">
<stop stop-color="#706AED"/>
<stop offset="1" stop-color="#271068"/>
</linearGradient>
<linearGradient id="paint37_linear_397:299" x1="398.711" y1="345.247" x2="466.149" y2="412.685" gradientUnits="userSpaceOnUse">
<stop stop-color="#FF57BD"/>
<stop offset="1" stop-color="#FE6A77"/>
</linearGradient>
<linearGradient id="paint38_linear_397:299" x1="385.668" y1="259.773" x2="393.137" y2="259.773" gradientUnits="userSpaceOnUse">
<stop stop-color="#C16846"/>
<stop offset="0.2653" stop-color="#D27565"/>
<stop offset="0.5308" stop-color="#DE7F7B"/>
<stop offset="0.7814" stop-color="#E58589"/>
<stop offset="1" stop-color="#E8878E"/>
</linearGradient>
<linearGradient id="paint39_linear_397:299" x1="403.645" y1="284.495" x2="428.839" y2="284.495" gradientUnits="userSpaceOnUse">
<stop stop-color="#FDE1A7"/>
<stop offset="1" stop-color="#F9A144"/>
</linearGradient>
<linearGradient id="paint40_linear_397:299" x1="380.439" y1="264.817" x2="412.953" y2="264.817" gradientUnits="userSpaceOnUse">
<stop stop-color="#F4BEA3"/>
<stop offset="1" stop-color="#E8878E"/>
</linearGradient>
<linearGradient id="paint41_linear_397:299" x1="410.848" y1="295.475" x2="454.058" y2="295.475" gradientUnits="userSpaceOnUse">
<stop stop-color="#FDE1A7"/>
<stop offset="1" stop-color="#F9A144"/>
</linearGradient>
<linearGradient id="paint42_linear_397:299" x1="451.256" y1="229.041" x2="490.999" y2="268.784" gradientUnits="userSpaceOnUse">
<stop stop-color="#5A55F8"/>
<stop offset="1" stop-color="#8C6AE2"/>
</linearGradient>
<linearGradient id="paint43_linear_397:299" x1="428.784" y1="253.848" x2="446.06" y2="253.848" gradientUnits="userSpaceOnUse">
<stop stop-color="#F4BEA3"/>
<stop offset="1" stop-color="#E8878E"/>
</linearGradient>
<linearGradient id="paint44_linear_397:299" x1="417.202" y1="232.911" x2="447.929" y2="232.911" gradientUnits="userSpaceOnUse">
<stop stop-color="#F4BEA3"/>
<stop offset="1" stop-color="#E8878E"/>
</linearGradient>
<linearGradient id="paint45_linear_397:299" x1="416.646" y1="230.412" x2="427.253" y2="230.412" gradientUnits="userSpaceOnUse">
<stop stop-color="#FF57BD"/>
<stop offset="1" stop-color="#EC9895"/>
</linearGradient>
<linearGradient id="paint46_linear_397:299" x1="423.53" y1="225.11" x2="457.789" y2="225.11" gradientUnits="userSpaceOnUse">
<stop stop-color="#5A55F8"/>
<stop offset="1" stop-color="#8C6AE2"/>
</linearGradient>
<linearGradient id="paint47_linear_397:299" x1="357.44" y1="283.708" x2="381.829" y2="283.708" gradientUnits="userSpaceOnUse">
<stop stop-color="#F4BEA3"/>
<stop offset="1" stop-color="#E8878E"/>
</linearGradient>
<linearGradient id="paint48_linear_397:299" x1="375.179" y1="293.253" x2="449.468" y2="293.253" gradientUnits="userSpaceOnUse">
<stop stop-color="#FDE1A7"/>
<stop offset="1" stop-color="#F9A144"/>
</linearGradient>
<linearGradient id="paint49_linear_397:299" x1="189.153" y1="386.182" x2="226.106" y2="423.135" gradientUnits="userSpaceOnUse">
<stop stop-color="#00E2EC"/>
<stop offset="1" stop-color="#0090B2"/>
</linearGradient>
<linearGradient id="paint50_linear_397:299" x1="187.864" y1="384.893" x2="227.394" y2="424.423" gradientUnits="userSpaceOnUse">
<stop stop-color="#706AED"/>
<stop offset="1" stop-color="#271068"/>
</linearGradient>
<linearGradient id="paint51_linear_397:299" x1="135.61" y1="513.68" x2="157.13" y2="535.199" gradientUnits="userSpaceOnUse">
<stop stop-color="#706AED"/>
<stop offset="1" stop-color="#271068"/>
</linearGradient>
<linearGradient id="paint52_linear_397:299" x1="98.042" y1="378.365" x2="193.058" y2="473.381" gradientUnits="userSpaceOnUse">
<stop stop-color="#994574"/>
<stop offset="1" stop-color="#43256F"/>
</linearGradient>
<linearGradient id="paint53_linear_397:299" x1="189.754" y1="518.44" x2="210.282" y2="538.967" gradientUnits="userSpaceOnUse">
<stop stop-color="#706AED"/>
<stop offset="1" stop-color="#271068"/>
</linearGradient>
<linearGradient id="paint54_linear_397:299" x1="124.448" y1="371.539" x2="238.552" y2="485.644" gradientUnits="userSpaceOnUse">
<stop stop-color="#994574"/>
<stop offset="1" stop-color="#43256F"/>
</linearGradient>
<linearGradient id="paint55_linear_397:299" x1="149.092" y1="197.326" x2="196.397" y2="197.326" gradientUnits="userSpaceOnUse">
<stop stop-color="#F4BEA3"/>
<stop offset="1" stop-color="#E8878E"/>
</linearGradient>
<linearGradient id="paint56_linear_397:299" x1="120.418" y1="257.427" x2="200.015" y2="337.024" gradientUnits="userSpaceOnUse">
<stop stop-color="#1AA9E8"/>
<stop offset="0.4223" stop-color="#3D80EF"/>
<stop offset="0.7909" stop-color="#5662F4"/>
<stop offset="1" stop-color="#5F57F6"/>
</linearGradient>
<linearGradient id="paint57_linear_397:299" x1="178.557" y1="228.913" x2="186.999" y2="228.913" gradientUnits="userSpaceOnUse">
<stop stop-color="#EC9895"/>
<stop offset="1" stop-color="#FF57BD"/>
</linearGradient>
<linearGradient id="paint58_linear_397:299" x1="150.568" y1="229.667" x2="181.932" y2="261.031" gradientUnits="userSpaceOnUse">
<stop stop-color="#F4BEA3"/>
<stop offset="1" stop-color="#E8878E"/>
</linearGradient>
<linearGradient id="paint59_linear_397:299" x1="146.946" y1="225.774" x2="180.466" y2="225.774" gradientUnits="userSpaceOnUse">
<stop stop-color="#CB2090"/>
<stop offset="1" stop-color="#43256F"/>
</linearGradient>
<linearGradient id="paint60_linear_397:299" x1="171.106" y1="237.494" x2="185.522" y2="251.911" gradientUnits="userSpaceOnUse">
<stop stop-color="#CB2090"/>
<stop offset="1" stop-color="#43256F"/>
</linearGradient>
<linearGradient id="paint61_linear_397:299" x1="151.732" y1="266.98" x2="173.595" y2="266.98" gradientUnits="userSpaceOnUse">
<stop stop-color="#1AA9E8"/>
<stop offset="0.4223" stop-color="#3D80EF"/>
<stop offset="0.7909" stop-color="#5662F4"/>
<stop offset="1" stop-color="#5F57F6"/>
</linearGradient>
<linearGradient id="paint62_linear_397:299" x1="178.411" y1="354.037" x2="212.15" y2="354.037" gradientUnits="userSpaceOnUse">
<stop stop-color="#F4BEA3"/>
<stop offset="1" stop-color="#E8878E"/>
</linearGradient>
<linearGradient id="paint63_linear_397:299" x1="172.841" y1="297.519" x2="199.37" y2="297.519" gradientUnits="userSpaceOnUse">
<stop stop-color="#1AA9E8"/>
<stop offset="0.4223" stop-color="#3D80EF"/>
<stop offset="0.7909" stop-color="#5662F4"/>
<stop offset="1" stop-color="#5F57F6"/>
</linearGradient>
</defs>
</svg>
