<svg id="Layer_1" data-name="Layer 1" xmlns="http://www.w3.org/2000/svg" viewBox="0 0 612 792"><defs><style>.cls-1{fill:#fff;}</style></defs><path class="cls-1" d="M285.89,356.69a8,8,0,0,0,1.72-.16,3.62,3.62,0,0,0,1.11-.48,1.73,1.73,0,0,0,.58-.73,2.75,2.75,0,0,0,.16-.93,2.09,2.09,0,0,0-1-1.78,13.94,13.94,0,0,0-3.51-1.56c-.72-.26-1.44-.54-2.16-.86a9.24,9.24,0,0,1-1.95-1.24,6.28,6.28,0,0,1-1.4-1.82,5.79,5.79,0,0,1-.54-2.61,6.22,6.22,0,0,1,.58-2.74,5.77,5.77,0,0,1,1.62-2.1,7.16,7.16,0,0,1,2.55-1.31,11,11,0,0,1,3.37-.48,13.75,13.75,0,0,1,3.86.48,14,14,0,0,1,2.67,1.05l-1.43,3.92a13.13,13.13,0,0,0-2.07-.83,8.55,8.55,0,0,0-2.71-.38,5,5,0,0,0-2.58.51,1.64,1.64,0,0,0-.76,1.5,1.77,1.77,0,0,0,.28,1,3.25,3.25,0,0,0,.8.76c.36.21.77.41,1.21.61l1.53.54a29.89,29.89,0,0,1,3,1.27,7.59,7.59,0,0,1,2.11,1.43,5.27,5.27,0,0,1,1.27,2,7.67,7.67,0,0,1,.41,2.7,5.79,5.79,0,0,1-2.16,4.81c-1.45,1.13-3.62,1.69-6.53,1.69a16.19,16.19,0,0,1-2.64-.19,16.83,16.83,0,0,1-2.11-.41,12.16,12.16,0,0,1-1.56-.55q-.63-.28-1.08-.54l1.4-4a13.75,13.75,0,0,0,2.42,1A13.14,13.14,0,0,0,285.89,356.69Z"/><path class="cls-1" d="M297.93,339.55l4.74-.76v4.93h5.71v3.95h-5.71v5.89a4.79,4.79,0,0,0,.51,2.39,2.3,2.3,0,0,0,2.14.89,10.44,10.44,0,0,0,1.56-.12,9.55,9.55,0,0,0,1.5-.42L309,360a13.88,13.88,0,0,1-1.91.6,11.09,11.09,0,0,1-2.58.26,8.71,8.71,0,0,1-3.21-.51,5.21,5.21,0,0,1-2-1.47,5.66,5.66,0,0,1-1.08-2.29,13.57,13.57,0,0,1-.29-3Z"/><path class="cls-1" d="M326.54,359.9a23.68,23.68,0,0,1-3.12.64,24.68,24.68,0,0,1-4,.32,9.46,9.46,0,0,1-3.57-.58,5.39,5.39,0,0,1-2.23-1.59,6.41,6.41,0,0,1-1.18-2.48,13.53,13.53,0,0,1-.35-3.16v-9.33h4.75v8.76a6.83,6.83,0,0,0,.6,3.31,2.41,2.41,0,0,0,2.26,1l1.08,0c.39,0,.73-.08,1-.13V343.72h4.75Z"/><path class="cls-1" d="M335.74,360.48H331V343.72h4.75Zm.45-21.6a2.64,2.64,0,0,1-.86,2.07,2.89,2.89,0,0,1-2,.73,3,3,0,0,1-2-.73,2.68,2.68,0,0,1-.82-2.07,2.59,2.59,0,0,1,.82-2,3,3,0,0,1,2-.76,2.82,2.82,0,0,1,2,.76A2.55,2.55,0,0,1,336.19,338.88Z"/><path class="cls-1" d="M345,357.07a4.73,4.73,0,0,0,1.85-.26,1,1,0,0,0,.54-1,1.17,1.17,0,0,0-.7-1,12,12,0,0,0-2.14-1c-.74-.28-1.42-.56-2-.86a6.25,6.25,0,0,1-1.53-1.05,4.36,4.36,0,0,1-1-1.5,5.53,5.53,0,0,1-.35-2.07,4.46,4.46,0,0,1,1.75-3.72,7.58,7.58,0,0,1,4.81-1.37,14.64,14.64,0,0,1,2.93.28,12.15,12.15,0,0,1,2.23.58l-.83,3.69a18,18,0,0,0-1.81-.51,9.54,9.54,0,0,0-2.17-.22c-1.49,0-2.23.41-2.23,1.24a1.19,1.19,0,0,0,.1.51,1.17,1.17,0,0,0,.38.45c.19.12.44.27.76.44s.77.32,1.28.51a18,18,0,0,1,2.58,1.15,5.28,5.28,0,0,1,1.59,1.21,3.41,3.41,0,0,1,.83,1.43,6.09,6.09,0,0,1,.25,1.85,4.24,4.24,0,0,1-1.88,3.76,9.17,9.17,0,0,1-5.25,1.27,15.63,15.63,0,0,1-3.73-.38,16.09,16.09,0,0,1-2-.64l.8-3.85a16.51,16.51,0,0,0,2.48.76A12.84,12.84,0,0,0,345,357.07Z"/><path class="cls-1" d="M355.5,339.55l4.74-.76v4.93h5.7v3.95h-5.7v5.89a4.79,4.79,0,0,0,.51,2.39,2.3,2.3,0,0,0,2.14.89,10.44,10.44,0,0,0,1.56-.12,9.12,9.12,0,0,0,1.49-.42l.67,3.7a13.88,13.88,0,0,1-1.91.6,11.09,11.09,0,0,1-2.58.26,8.71,8.71,0,0,1-3.21-.51,5.21,5.21,0,0,1-2-1.47,5.66,5.66,0,0,1-1.08-2.29,13.57,13.57,0,0,1-.29-3Z"/><path class="cls-1" d="M375.59,357.16c.47,0,.91,0,1.34,0a10.15,10.15,0,0,0,1-.09v-3.6a6.7,6.7,0,0,0-.86-.13,10.42,10.42,0,0,0-1.06-.06,8.63,8.63,0,0,0-1.27.09,3,3,0,0,0-1,.29,1.79,1.79,0,0,0-.7.6,1.72,1.72,0,0,0-.25,1,1.68,1.68,0,0,0,.73,1.56A4.45,4.45,0,0,0,375.59,357.16Zm-.38-13.88a11.22,11.22,0,0,1,3.5.47,5.39,5.39,0,0,1,2.23,1.37,5,5,0,0,1,1.21,2.17,10.8,10.8,0,0,1,.35,2.83V360c-.68.15-1.62.32-2.83.51a26.19,26.19,0,0,1-4.4.32,14.21,14.21,0,0,1-3-.29,6.58,6.58,0,0,1-2.26-.92,4.44,4.44,0,0,1-1.47-1.72,5.93,5.93,0,0,1-.51-2.58,4.93,4.93,0,0,1,.58-2.49,4.57,4.57,0,0,1,1.59-1.62,6.73,6.73,0,0,1,2.26-.86,12.07,12.07,0,0,1,2.64-.29,11.21,11.21,0,0,1,1.63.1,5.92,5.92,0,0,1,1.18.19v-.45a2.62,2.62,0,0,0-.74-1.94,3.52,3.52,0,0,0-2.54-.73,14.54,14.54,0,0,0-2.39.19,9.32,9.32,0,0,0-2,.47l-.61-3.82c.28-.08.62-.17,1-.25a12.84,12.84,0,0,1,1.37-.26c.49-.08,1-.15,1.53-.19A15.25,15.25,0,0,1,375.21,343.28Z"/></svg>